<svg width="13" height="8" viewBox="0 0 13 8" fill="none" xmlns="http://www.w3.org/2000/svg">
<g clip-path="url(#clip0_30_8656)">
<path d="M6.04591 5.36L10.5859 0.820005C10.7469 0.660619 10.9643 0.571213 11.1909 0.571213C11.4175 0.571213 11.6349 0.660619 11.7959 0.820005C11.9536 0.983942 12.0416 1.20256 12.0416 1.43C12.0416 1.65745 11.9536 1.87607 11.7959 2.04L6.65591 7.18001C6.49749 7.33276 6.28599 7.41812 6.06591 7.41812C5.84584 7.41812 5.63434 7.33276 5.47591 7.18001L0.295913 2.04C0.215791 1.96093 0.152172 1.86674 0.10875 1.76288C0.0653286 1.65902 0.0429687 1.54757 0.0429688 1.435C0.0429687 1.32244 0.0653286 1.21099 0.10875 1.10713C0.152172 1.00327 0.215791 0.909075 0.295913 0.830005C0.374984 0.749882 0.469182 0.686264 0.573039 0.642842C0.676897 0.59942 0.788344 0.57706 0.900913 0.57706C1.01348 0.57706 1.12493 0.59942 1.22879 0.642842C1.33264 0.686264 1.42684 0.749882 1.50591 0.830005L6.04591 5.36Z" fill="black"/>
</g>
<defs>
<clipPath id="clip0_30_8656">
<rect width="12" height="6.86" fill="white" transform="translate(0.046875 0.570007)"/>
</clipPath>
</defs>
</svg>
