<svg width="127" height="19" viewBox="0 0 127 19" fill="none" xmlns="http://www.w3.org/2000/svg">
<path d="M0.26598 18.4844V1.7571H11.6843V5.04048H4.30895V8.47088H10.9574V11.7624H4.30895V18.4844H0.26598ZM18.1835 18.7212C16.8713 18.7212 15.7387 18.4626 14.7858 17.9453C13.8384 17.4226 13.1087 16.6793 12.5969 15.7156C12.0905 14.7463 11.8373 13.5947 11.8373 12.2607C11.8373 10.9647 12.0932 9.83215 12.6051 8.86293C13.1169 7.88826 13.8384 7.13139 14.7695 6.59233C15.7006 6.04782 16.7978 5.77557 18.061 5.77557C18.954 5.77557 19.7708 5.91442 20.5113 6.19212C21.2518 6.46981 21.8916 6.88092 22.4307 7.42543C22.9698 7.96993 23.389 8.6424 23.6885 9.44283C23.988 10.2378 24.1377 11.1499 24.1377 12.179V13.1754H13.234V10.8558H20.4215C20.416 10.4311 20.3153 10.0527 20.1193 9.72053C19.9232 9.38838 19.6537 9.12973 19.3107 8.9446C18.9731 8.75402 18.5837 8.65874 18.1427 8.65874C17.6962 8.65874 17.296 8.75947 16.9421 8.96094C16.5881 9.15696 16.3077 9.42649 16.1008 9.76953C15.8939 10.1071 15.785 10.491 15.7741 10.9212V13.2816C15.7741 13.7934 15.8748 14.2427 16.0763 14.6293C16.2778 15.0104 16.5636 15.3072 16.9339 15.5195C17.3042 15.7319 17.7452 15.8381 18.257 15.8381C18.611 15.8381 18.9322 15.7891 19.2208 15.6911C19.5094 15.593 19.7572 15.4487 19.9641 15.2582C20.171 15.0676 20.3262 14.8335 20.4296 14.5558L24.0969 14.6619C23.9444 15.4841 23.6095 16.2002 23.0923 16.81C22.5804 17.4144 21.908 17.8854 21.0749 18.223C20.2418 18.5552 19.278 18.7212 18.1835 18.7212ZM29.2342 18.6967C28.4337 18.6967 27.7232 18.5633 27.1024 18.2965C26.4871 18.0243 25.9998 17.6159 25.6404 17.0714C25.2865 16.5214 25.1095 15.8326 25.1095 15.005C25.1095 14.308 25.232 13.7199 25.4771 13.2408C25.7221 12.7616 26.0597 12.3723 26.4898 12.0728C26.92 11.7733 27.4155 11.5473 27.9763 11.3949C28.5372 11.237 29.1361 11.1308 29.7732 11.0763C30.4865 11.011 31.061 10.9429 31.4966 10.8722C31.9322 10.7959 32.248 10.6897 32.444 10.5536C32.6455 10.412 32.7462 10.2133 32.7462 9.95739V9.91655C32.7462 9.49728 32.6019 9.1733 32.3133 8.9446C32.0248 8.71591 31.6354 8.60156 31.1454 8.60156C30.6172 8.60156 30.1925 8.71591 29.8712 8.9446C29.55 9.1733 29.3458 9.48911 29.2587 9.89205L25.5751 9.76136C25.684 8.99905 25.9644 8.31842 26.4163 7.71946C26.8737 7.11506 27.4999 6.64134 28.2949 6.2983C29.0953 5.94981 30.0564 5.77557 31.1781 5.77557C31.9785 5.77557 32.7163 5.87086 33.3915 6.06143C34.0667 6.24657 34.6547 6.51882 35.1557 6.8782C35.6566 7.23213 36.0432 7.66773 36.3155 8.18501C36.5932 8.7023 36.732 9.29309 36.732 9.95739V18.4844H32.9749V16.7365H32.8769C32.6537 17.1612 32.3678 17.5206 32.0193 17.8146C31.6763 18.1087 31.2706 18.3292 30.8023 18.4762C30.3395 18.6232 29.8168 18.6967 29.2342 18.6967ZM30.4675 16.0831C30.8976 16.0831 31.2842 15.996 31.6273 15.8217C31.9758 15.6475 32.2535 15.4079 32.4604 15.103C32.6673 14.7926 32.7707 14.4332 32.7707 14.0249V12.8324C32.6564 12.8923 32.5175 12.9467 32.3542 12.9957C32.1963 13.0447 32.022 13.091 31.8315 13.1346C31.6409 13.1781 31.4449 13.2163 31.2434 13.2489C31.0419 13.2816 30.8486 13.3116 30.6635 13.3388C30.2878 13.3987 29.9665 13.4912 29.6997 13.6165C29.4383 13.7417 29.2369 13.9051 29.0953 14.1065C28.9592 14.3026 28.8911 14.5367 28.8911 14.8089C28.8911 15.2228 29.0381 15.5386 29.3322 15.7564C29.6316 15.9742 30.0101 16.0831 30.4675 16.0831ZM45.7755 5.93892V8.87926H37.861V5.93892H45.7755ZM39.5191 2.93324H43.513V14.5394C43.513 14.7844 43.5512 14.9832 43.6274 15.1357C43.7091 15.2827 43.8261 15.3888 43.9786 15.4542C44.1311 15.5141 44.3135 15.544 44.5258 15.544C44.6783 15.544 44.8389 15.5304 45.0077 15.5032C45.182 15.4705 45.3126 15.4433 45.3998 15.4215L46.0042 18.3047C45.8136 18.3591 45.5441 18.4272 45.1956 18.5089C44.8525 18.5906 44.4414 18.6423 43.9623 18.6641C43.0257 18.7076 42.2226 18.5987 41.5528 18.3374C40.8885 18.0705 40.3794 17.6567 40.0255 17.0959C39.677 16.535 39.5082 15.8299 39.5191 14.9805V2.93324ZM55.4274 13.0692V5.93892H59.4132V18.4844H55.6071V16.1484H55.4764C55.1987 16.9162 54.725 17.526 54.0552 17.978C53.3909 18.4245 52.5878 18.6477 51.6458 18.6477C50.7909 18.6477 50.0395 18.4517 49.3915 18.0597C48.7436 17.6676 48.2399 17.1204 47.8805 16.418C47.5211 15.7101 47.3387 14.8825 47.3333 13.935V5.93892H51.3272V13.1509C51.3327 13.8316 51.5124 14.3679 51.8663 14.7599C52.2202 15.152 52.7021 15.348 53.312 15.348C53.7095 15.348 54.0661 15.2609 54.3819 15.0866C54.7032 14.907 54.9564 14.6483 55.1415 14.3107C55.3321 13.9677 55.4274 13.5539 55.4274 13.0692ZM61.4754 18.4844V5.93892H65.355V8.22585H65.4857C65.7143 7.3982 66.0873 6.78291 66.6046 6.37997C67.1219 5.97159 67.7236 5.7674 68.4097 5.7674C68.5948 5.7674 68.7854 5.78101 68.9814 5.80824C69.1774 5.83002 69.3598 5.86541 69.5286 5.91442V9.38565C69.338 9.32031 69.0876 9.26858 68.7772 9.23047C68.4723 9.19235 68.2 9.1733 67.9604 9.1733C67.4867 9.1733 67.0593 9.27947 66.6781 9.49183C66.3024 9.69874 66.0057 9.99006 65.7879 10.3658C65.5755 10.736 65.4693 11.1716 65.4693 11.6726V18.4844H61.4754ZM75.889 18.7212C74.5767 18.7212 73.4442 18.4626 72.4913 17.9453C71.5438 17.4226 70.8142 16.6793 70.3024 15.7156C69.796 14.7463 69.5428 13.5947 69.5428 12.2607C69.5428 10.9647 69.7987 9.83215 70.3105 8.86293C70.8224 7.88826 71.5438 7.13139 72.4749 6.59233C73.406 6.04782 74.5032 5.77557 75.7665 5.77557C76.6595 5.77557 77.4762 5.91442 78.2168 6.19212C78.9573 6.46981 79.5971 6.88092 80.1362 7.42543C80.6752 7.96993 81.0945 8.6424 81.394 9.44283C81.6935 10.2378 81.8432 11.1499 81.8432 12.179V13.1754H70.9394V10.8558H78.1269C78.1215 10.4311 78.0207 10.0527 77.8247 9.72053C77.6287 9.38838 77.3592 9.12973 77.0161 8.9446C76.6785 8.75402 76.2892 8.65874 75.8482 8.65874C75.4017 8.65874 75.0015 8.75947 74.6475 8.96094C74.2936 9.15696 74.0132 9.42649 73.8063 9.76953C73.5993 10.1071 73.4904 10.491 73.4796 10.9212V13.2816C73.4796 13.7934 73.5803 14.2427 73.7818 14.6293C73.9832 15.0104 74.2691 15.3072 74.6394 15.5195C75.0096 15.7319 75.4507 15.8381 75.9625 15.8381C76.3164 15.8381 76.6377 15.7891 76.9263 15.6911C77.2149 15.593 77.4626 15.4487 77.6695 15.2582C77.8765 15.0676 78.0316 14.8335 78.1351 14.5558L81.8024 14.6619C81.6499 15.4841 81.315 16.2002 80.7977 16.81C80.2859 17.4144 79.6134 17.8854 78.7803 18.223C77.9472 18.5552 76.9835 18.7212 75.889 18.7212ZM87.9851 18.6641C87.0594 18.6641 86.2182 18.4245 85.4613 17.9453C84.7044 17.4661 84.1 16.7474 83.6481 15.7891C83.1961 14.8307 82.9702 13.641 82.9702 12.2198C82.9702 10.7442 83.2043 9.52995 83.6726 8.57706C84.1409 7.62417 84.7534 6.91903 85.5103 6.46165C86.2726 6.00426 87.0921 5.77557 87.9687 5.77557C88.6276 5.77557 89.1912 5.88991 89.6594 6.11861C90.1277 6.34186 90.5143 6.63045 90.8192 6.98438C91.1242 7.3383 91.3556 7.70585 91.5135 8.087H91.5952V1.7571H95.5891V18.4844H91.636V16.4506H91.5135C91.3447 16.8372 91.1051 17.1993 90.7947 17.5369C90.4844 17.8745 90.095 18.1468 89.6268 18.3537C89.1639 18.5606 88.6167 18.6641 87.9851 18.6641ZM89.3736 15.5522C89.8582 15.5522 90.272 15.4161 90.6151 15.1438C90.9581 14.8661 91.2222 14.4768 91.4073 13.9759C91.5924 13.4749 91.685 12.8868 91.685 12.2116C91.685 11.5256 91.5924 10.9348 91.4073 10.4393C91.2276 9.94377 90.9635 9.56262 90.6151 9.29581C90.272 9.029 89.8582 8.8956 89.3736 8.8956C88.8781 8.8956 88.4588 9.03172 88.1158 9.30398C87.7727 9.57623 87.5114 9.96011 87.3317 10.4556C87.1574 10.9511 87.0703 11.5365 87.0703 12.2116C87.0703 12.8868 87.1602 13.4749 87.3398 13.9759C87.5195 14.4768 87.7782 14.8661 88.1158 15.1438C88.4588 15.4161 88.8781 15.5522 89.3736 15.5522ZM102.096 18.4844V5.93892H106.09V18.4844H102.096ZM104.097 4.47692C103.537 4.47692 103.055 4.29179 102.652 3.92152C102.249 3.54581 102.047 3.09387 102.047 2.5657C102.047 2.04297 102.249 1.59647 102.652 1.22621C103.055 0.850496 103.537 0.662641 104.097 0.662641C104.664 0.662641 105.146 0.850496 105.543 1.22621C105.946 1.59647 106.148 2.04297 106.148 2.5657C106.148 3.09387 105.946 3.54581 105.543 3.92152C105.146 4.29179 104.664 4.47692 104.097 4.47692ZM112.146 11.3295V18.4844H108.153V5.93892H111.95V8.24219H112.089C112.367 7.47443 112.841 6.87275 113.51 6.43714C114.18 5.99609 114.978 5.77557 115.904 5.77557C116.786 5.77557 117.551 5.97431 118.199 6.3718C118.852 6.76385 119.358 7.3138 119.718 8.02166C120.083 8.72408 120.262 9.54628 120.257 10.4883V18.4844H116.263V11.2724C116.268 10.5754 116.091 10.0309 115.732 9.63885C115.378 9.2468 114.885 9.05078 114.254 9.05078C113.834 9.05078 113.464 9.14335 113.143 9.32848C112.827 9.50817 112.582 9.76681 112.408 10.1044C112.239 10.442 112.152 10.8504 112.146 11.3295ZM124.496 18.7212C123.908 18.7212 123.404 18.5143 122.985 18.1005C122.571 17.6867 122.367 17.1857 122.372 16.5977C122.367 16.0205 122.571 15.5277 122.985 15.1193C123.404 14.7055 123.908 14.4986 124.496 14.4986C125.051 14.4986 125.541 14.7055 125.966 15.1193C126.396 15.5277 126.614 16.0205 126.619 16.5977C126.614 16.9897 126.51 17.3464 126.309 17.6676C126.113 17.9889 125.854 18.2448 125.533 18.4354C125.217 18.6259 124.871 18.7212 124.496 18.7212ZM124.496 10.1126C123.908 10.1126 123.404 9.90838 122.985 9.5C122.571 9.08617 122.367 8.5825 122.372 7.98899C122.367 7.41181 122.571 6.91903 122.985 6.51065C123.404 6.09683 123.908 5.88991 124.496 5.88991C125.051 5.88991 125.541 6.09683 125.966 6.51065C126.396 6.91903 126.614 7.41181 126.619 7.98899C126.614 8.38104 126.51 8.73769 126.309 9.05895C126.113 9.38021 125.854 9.63613 125.533 9.8267C125.217 10.0173 124.871 10.1126 124.496 10.1126Z" fill="#02033B"/>
</svg>
