<svg width="131" height="96" viewBox="0 0 131 96" fill="none" xmlns="http://www.w3.org/2000/svg">
<g clip-path="url(#clip0_30_8324)">
<path d="M0.125 69.7444H42.645V27.2244H0.125V69.7444ZM20.145 37.4644C19.475 35.3244 18.745 34.6344 14.975 34.6344H12.065C11.185 34.6344 10.995 34.8244 10.995 35.6144V41.6844H12.415C15.415 41.6844 16.055 41.1344 16.415 39.1244H17.145V45.9044H16.415C16.015 43.6444 14.885 43.0744 12.415 43.0744H10.985V49.4044C10.985 51.4144 11.525 51.6444 13.815 51.7344V52.4644H4.735V51.7144C6.625 51.6344 7.165 51.4044 7.165 49.3844V36.2944C7.165 34.2844 6.625 34.0544 4.795 33.9744V33.2444H20.845L20.945 37.4744H20.145V37.4644ZM38.385 37.4644C37.775 35.3944 36.875 34.6344 34.845 34.6344H32.475V49.3844C32.475 51.3944 32.995 51.6244 35.175 51.7144V52.4644H25.915V51.7344C28.075 51.6544 28.615 51.4244 28.615 49.4044V34.6544H26.255C24.245 34.6544 23.325 35.4044 22.715 37.4844H21.755L22.155 33.2544H38.995L39.355 37.4844H38.385V37.4644Z" fill="#02033B"/>
<path d="M52.0041 44.9144C52.0041 45.9144 52.2841 45.9944 53.3941 46.0344V46.3944H48.9741V46.0344C49.8941 45.9944 50.1741 45.8744 50.1741 44.9144V38.5444C50.1741 37.5444 49.8941 37.4644 49.0241 37.4244V37.0644H56.8341L56.8741 39.1344H56.4741C56.1541 38.0944 55.7941 37.7844 53.9641 37.7844H52.5341C52.0941 37.7844 52.0141 37.8644 52.0141 38.2644V41.2144H53.6141C55.0841 41.2144 55.4041 40.9344 55.5641 39.9744H55.9241V43.2844H55.5641C55.3641 42.1644 54.8041 41.8944 53.6141 41.8944H52.0141V44.9244L52.0041 44.9144ZM61.2041 44.9144C61.2041 45.9144 61.4841 45.9944 62.5941 46.0344V46.3944H57.9841V46.0344C59.1041 45.9944 59.3741 45.8744 59.3741 44.9144V38.5444C59.3741 37.5444 59.1341 37.4644 57.9841 37.4244V37.0644H62.6041V37.4244C61.4841 37.4644 61.2141 37.5844 61.2141 38.5444V44.9144H61.2041ZM72.2341 38.7844C72.2341 37.8644 71.9941 37.5044 70.9641 37.3944V37.0344H74.2741V37.3944C73.2341 37.5144 73.0041 37.8744 73.0041 38.7844V46.5944H72.5241L66.1541 39.2244V44.6444C66.1541 45.5644 66.3941 45.9244 67.4241 46.0344V46.3944H64.1141V46.0344C65.1541 45.9144 65.3841 45.5544 65.3841 44.6444V38.3544C65.1441 37.8444 64.6641 37.4944 64.1141 37.3944V37.0344H66.6641L72.2441 43.4844V38.7844H72.2341ZM77.2141 43.0444L78.6041 39.3444L79.9941 43.0444H77.2141ZM83.9041 46.3944V46.0344C83.1841 46.0344 83.0241 45.7544 82.6641 44.8844L79.3541 36.8344H78.9141L75.4941 45.1644C75.3241 45.6644 74.8641 46.0144 74.3441 46.0444V46.4044H77.3341V46.0444C76.6941 46.0444 76.3741 45.8844 76.3741 45.4444C76.4941 44.8544 76.6641 44.2844 76.8941 43.7344H80.2841C80.5341 44.2844 80.7141 44.8544 80.8441 45.4444C80.8441 45.8844 80.4841 46.0444 79.8441 46.0444V46.4044H83.9041V46.3944ZM92.9841 38.7644C92.9841 37.8444 92.7441 37.4844 91.7141 37.3744V37.0144H95.0241V37.3744C93.9841 37.4944 93.7541 37.8544 93.7541 38.7644V46.5744H93.2741L86.9141 39.2044V44.6244C86.9141 45.5444 87.1541 45.9044 88.1841 46.0144V46.3744H84.8741V46.0144C85.9141 45.8944 86.1441 45.5344 86.1441 44.6244V38.3344C85.9041 37.8244 85.4241 37.4744 84.8741 37.3744V37.0144H87.4241L93.0041 43.4644V38.7644H92.9841ZM104.804 44.1844C104.014 45.7444 102.374 46.7044 100.624 46.6144C97.5941 46.6144 95.7641 44.6244 95.7641 41.6344C95.7941 38.9444 97.9941 36.7844 100.684 36.8144H100.704C101.584 36.9144 102.454 37.1044 103.294 37.3744C103.574 37.3744 103.654 37.2144 103.894 36.8144H104.374L104.574 39.9244H104.174C103.804 38.4844 102.514 37.4544 101.024 37.4144C98.8341 37.4144 97.8741 39.8044 97.8741 41.5944C97.8741 44.1044 98.9441 45.8144 101.304 45.8144C102.644 45.7644 103.864 45.0244 104.534 43.8644L104.814 44.1844H104.804ZM109.304 44.9044C109.304 45.9044 109.584 45.9844 110.694 46.0244V46.3844H106.084V46.0244C107.204 45.9844 107.474 45.8644 107.474 44.9044V38.5344C107.474 37.5344 107.194 37.4544 106.084 37.4144V37.0544H110.704V37.4144C109.584 37.4544 109.314 37.5744 109.314 38.5344V44.9044H109.304ZM114.514 43.0344L115.904 39.3344L117.294 43.0344H114.514ZM121.204 46.3844V46.0244C120.484 46.0244 120.324 45.7444 119.964 44.8744L116.654 36.8244H116.214L112.794 45.1544C112.624 45.6544 112.164 46.0044 111.644 46.0344V46.3944H114.634V46.0344C113.994 46.0344 113.674 45.8744 113.674 45.4344C113.794 44.8444 113.964 44.2744 114.194 43.7244H117.584C117.824 44.2744 118.014 44.8444 118.144 45.4344C118.144 45.8744 117.784 46.0344 117.144 46.0344V46.3944H121.204V46.3844ZM122.044 46.3844V46.0244C122.924 45.9844 123.194 45.8644 123.194 44.9044V38.5344C123.194 37.5344 122.914 37.4544 122.044 37.4144V37.0544H126.344V37.4144C125.304 37.4544 125.074 37.5744 125.074 38.5344V45.1044C125.074 45.6644 125.234 45.8644 126.274 45.8644C127.944 45.8644 128.944 45.5444 129.734 43.9144H130.094L129.454 46.4244H122.044V46.3844ZM50.9841 61.1244C52.0541 61.0844 52.2941 60.9644 52.2941 60.0044V52.8344H51.1441C50.0741 52.8344 49.6341 53.2744 49.3141 54.5444H48.9141L49.1541 52.1544H57.3641L57.6041 54.5444H57.2041C56.8841 53.2644 56.4841 52.8344 55.3741 52.8344H54.2241V60.0044C54.2241 61.0044 54.5041 61.0844 55.5441 61.1244V61.4844H51.0441V61.1244H50.9841ZM61.7841 60.0044C61.7841 61.0044 62.0641 61.0844 63.1741 61.1244V61.4844H58.5541V61.1244C59.6741 61.0844 59.9441 60.9644 59.9441 60.0044V53.6344C59.9441 52.6344 59.6641 52.5544 58.5541 52.5144V52.1544H63.1841V52.5144C62.0641 52.5544 61.7941 52.6744 61.7941 53.6344V60.0044H61.7841ZM72.9741 52.1144H76.2041V52.4744C75.3241 52.5144 75.0541 52.6344 75.0541 53.5944V59.9644C75.0541 60.9644 75.3341 61.0444 76.2041 61.0844V61.4444H71.9741V61.0844C72.8941 61.0444 73.1741 60.9244 73.1741 59.9644V53.3944H73.1341L70.0241 61.5644H69.5841L66.5141 53.3944H66.4741V59.6844C66.4741 60.6044 66.7141 60.9644 67.7441 61.0744V61.4344H64.4341V61.0744C65.4741 60.9544 65.7041 60.5944 65.7041 59.6844V53.3144C65.7041 52.6744 65.4241 52.4344 64.4341 52.4344V52.0744H67.8241L70.2941 58.5644L72.9641 52.1144H72.9741ZM77.5141 61.4744V61.1144C78.3941 61.0744 78.6641 60.9544 78.6641 59.9944V53.6244C78.6641 52.6244 78.3841 52.5444 77.5141 52.5044V52.1444H85.3241L85.3641 54.2144H84.9641C84.6441 53.1744 84.2841 52.8644 82.4541 52.8644H81.0241C80.5841 52.8644 80.5041 52.9444 80.5041 53.3444V56.2944H82.0941C83.5641 56.2944 83.8841 56.0144 84.0441 55.0544H84.4041V58.3644H84.0441C83.8441 57.2444 83.2841 57.0144 82.0941 57.0144H80.5041V60.2444C80.5041 60.8044 80.6641 61.0044 82.3341 61.0044C84.0041 61.0044 85.0041 60.6844 85.7941 59.0544H86.1541L85.5141 61.5644H77.5041V61.4844H77.5141V61.4744ZM87.3941 58.5044H87.7541C88.1341 59.8644 89.2941 60.8744 90.7041 61.0544C91.5141 61.1244 92.2241 60.5344 92.2941 59.7244V59.5044C92.2941 57.3544 87.4341 56.9544 87.4341 54.2844C87.5441 52.9044 88.7141 51.8544 90.1041 51.8944C90.9541 51.9744 91.7941 52.1344 92.6141 52.3744C92.8741 52.3744 93.0841 52.1544 93.0941 51.8944H93.4541V54.8844H93.0941C92.8541 53.5944 91.7741 52.6344 90.4641 52.5344C89.7541 52.4544 89.1241 52.9544 89.0341 53.6644V53.8544C89.0341 55.7644 93.8941 55.8044 93.8941 59.1144C93.8541 60.5844 92.6241 61.7544 91.1541 61.7144H90.9841C89.3541 61.7144 88.9141 61.1544 88.2741 61.1544C88.0341 61.1544 87.8741 61.3144 87.7941 61.6344H87.3141L87.3941 58.5244V58.5044Z" fill="#02033B"/>
</g>
<defs>
<clipPath id="clip0_30_8324">
<rect width="130" height="42.52" fill="white" transform="translate(0.125 27.2244)"/>
</clipPath>
</defs>
</svg>
