<svg width="130" height="95" viewBox="0 0 130 95" fill="none" xmlns="http://www.w3.org/2000/svg">
<g clip-path="url(#clip0_30_8349)">
<path fill-rule="evenodd" clip-rule="evenodd" d="M113.671 52.3699C111.371 54.3299 108.431 55.3999 105.411 55.3699C99.1306 55.3699 95.0605 50.9199 95.0605 44.0299C95.0605 40.0899 95.8806 37.4799 97.8006 35.3399C99.5206 33.3599 102.061 32.2699 104.681 32.3899C107.011 32.3199 109.281 33.1699 111.001 34.7399C113.001 36.7899 113.911 39.7399 113.911 44.3199V45.6499H101.271V45.8199C101.271 49.1999 102.931 51.1299 105.891 51.1299C107.941 51.0899 109.921 50.3199 111.451 48.9499L113.671 52.3699ZM108.001 41.4599V41.2199C108.121 40.0799 107.881 38.9299 107.321 37.9299C106.781 37.0699 105.811 36.5799 104.801 36.6499C102.621 36.6499 101.381 38.3599 101.381 41.3999V41.4799L108.001 41.4599Z" fill="#02033B"/>
<path fill-rule="evenodd" clip-rule="evenodd" d="M128.419 36.84H124.739V47.84C124.739 50.62 125.249 51.35 127.219 51.35C127.919 51.31 128.609 51.16 129.269 50.93L129.999 54.35C128.529 55 126.939 55.34 125.329 55.35C122.429 55.35 120.109 54.07 119.429 52.15C119.069 51.06 118.939 49.9 119.049 48.76V36.83H116.869V32.9H119.049C119.009 31.17 119.079 29.44 119.259 27.72L125.079 26.27C124.859 28.47 124.739 30.69 124.739 32.9H129.879L128.419 36.84Z" fill="#02033B"/>
<path fill-rule="evenodd" clip-rule="evenodd" d="M86.37 25.07L86.5 37.22C86.5 39.22 86.75 43.08 86.97 45.4C86.11 42.51 85.02 39.68 83.72 36.96L78 25.06H71.39V38.57L56.31 6.21997L0 32.48L26.25 88.79L82.56 62.53L77.11 50.85L77 42.1C77 39.62 76.91 36.1 76.7 33.67C77.26 35.51 79.06 39.67 80.7 43.43L85.8 54.81H92.04V25.07H86.37ZM54.08 54.5H49.28V48.1H52.62C57.13 48.1 60.98 45.63 60.98 39.97C60.98 34.77 57.55 31.84 52.7 31.84H48.47V46.35L43 54.5H11.6L27 31.85H12.92L17.2 25.45H40.43L25.13 48.1H40.92V25.45H54.08C62.1 25.16 68.84 31.42 69.13 39.44C69.42 47.46 63.16 54.2 55.14 54.49C55 54.49 54.85 54.49 54.71 54.49H54.08" fill="#02033B"/>
</g>
<defs>
<clipPath id="clip0_30_8349">
<rect width="130" height="82.56" fill="white" transform="translate(0 6.21997)"/>
</clipPath>
</defs>
</svg>
